<svg width="65" height="26" viewBox="0 0 65 26" fill="none" xmlns="http://www.w3.org/2000/svg">
<rect width="64.3954" height="26" rx="4.17425" fill="#3EEDBF"/>
<mask id="mask0" mask-type="alpha" maskUnits="userSpaceOnUse" x="5" y="5" width="9" height="14">
<path fill-rule="evenodd" clip-rule="evenodd" d="M5.74414 5.81287H13.0323V18.9356H5.74414V5.81287Z" fill="white"/>
</mask>
<path fill-rule="evenodd" clip-rule="evenodd" d="M12.9677 18.7533C12.6578 18.8625 11.9472 18.9356 11.4914 18.9356C10.0697 18.9356 9.03088 18.4615 8.42941 17.6598C7.97362 17.0583 7.77313 16.2746 7.77313 15.0166V11.9185H5.74406V9.91362H7.77313V5.81287H10.1427V9.91362H13.0323V11.9185H10.1427V15.2902C10.1427 15.8371 10.2338 16.1652 10.4343 16.402C10.6711 16.6754 11.0539 16.8395 11.6373 16.8395C11.9835 16.8395 12.439 16.7847 12.6032 16.7482L12.9677 18.7533Z" fill="#292929"/>
<path fill-rule="evenodd" clip-rule="evenodd" d="M43.3391 23.1284L45.7813 17.861L41.8262 9.91455H44.4324L47.0208 15.2183L49.4084 9.91455H51.9055L45.8176 23.1284H43.3391Z" fill="#292929"/>
<path fill-rule="evenodd" clip-rule="evenodd" d="M17.7764 16.8247C16.401 16.8247 15.2859 15.7098 15.2859 14.3342C15.2859 12.9588 16.401 11.8437 17.7764 11.8437C19.1518 11.8437 20.2669 12.9588 20.2669 14.3342C20.2669 15.7098 19.1518 16.8247 17.7764 16.8247ZM20.1514 9.91438V10.6252C19.4588 10.0603 18.5657 9.73193 17.5633 9.73193C15.1576 9.73193 13.2255 11.7371 13.2255 14.3433C13.2255 15.5462 13.6628 16.6398 14.3556 17.4418C15.1393 18.3531 16.3788 18.9363 17.6909 18.9363C18.584 18.9363 19.4225 18.6628 20.1514 18.0432V18.7541H22.4297V9.91438H20.1514Z" fill="#292929"/>
<path fill-rule="evenodd" clip-rule="evenodd" d="M28.1551 16.8247C26.7797 16.8247 25.6646 15.7098 25.6646 14.3342C25.6646 12.9588 26.7797 11.8437 28.1551 11.8437C29.5305 11.8437 30.6456 12.9588 30.6456 14.3342C30.6456 15.7098 29.5305 16.8247 28.1551 16.8247ZM28.3682 9.73178C27.3658 9.73178 26.4727 10.0601 25.7801 10.6251V5.81348H23.5018V18.754H25.7801V18.0431C26.509 18.6626 27.3475 18.9362 28.2406 18.9362C29.5527 18.9362 30.7922 18.353 31.5759 17.4416C32.2687 16.6396 32.7062 15.5461 32.7062 14.3431C32.7062 11.7369 30.7739 9.73178 28.3682 9.73178Z" fill="#292929"/>
<path fill-rule="evenodd" clip-rule="evenodd" d="M37.9449 16.8247C36.5695 16.8247 35.4544 15.7098 35.4544 14.3342C35.4544 12.9588 36.5695 11.8437 37.9449 11.8437C39.3205 11.8437 40.4354 12.9588 40.4354 14.3342C40.4354 15.7098 39.3205 16.8247 37.9449 16.8247ZM38.1579 9.73178C37.1554 9.73178 36.2626 10.0601 35.5698 10.6251V5.81348H33.2917V18.754H35.5698V18.0431C36.2989 18.6626 37.1372 18.9362 38.0305 18.9362C39.3426 18.9362 40.5821 18.353 41.3656 17.4416C42.0584 16.6396 42.4959 15.5461 42.4959 14.3431C42.4959 11.7369 40.5638 9.73178 38.1579 9.73178Z" fill="#292929"/>
<path fill-rule="evenodd" clip-rule="evenodd" d="M57.5012 6.13037L56.2969 8.21641H58.707C58.6267 7.35551 58.1688 6.60573 57.5012 6.13037ZM57.606 6.73151C57.9078 7.0366 58.1259 7.41301 58.2392 7.82487H56.9747L57.606 6.73151Z" fill="#292929"/>
<path fill-rule="evenodd" clip-rule="evenodd" d="M54.6217 11.1181C54.9887 11.2865 55.3958 11.383 55.8262 11.383C56.2565 11.383 56.6634 11.2865 57.0304 11.1181L55.8259 9.0321L54.6217 11.1181Z" fill="#292929"/>
<path fill-rule="evenodd" clip-rule="evenodd" d="M56.2969 8.76025L57.5012 10.8463C58.1688 10.3709 58.6267 9.62116 58.707 8.76025H56.2969Z" fill="#292929"/>
<path fill-rule="evenodd" clip-rule="evenodd" d="M57.0305 5.85849C56.6635 5.69018 56.2564 5.59363 55.8263 5.59363C55.3957 5.59363 54.9888 5.69018 54.6218 5.85849L55.826 7.94453L57.0305 5.85849Z" fill="#292929"/>
<path fill-rule="evenodd" clip-rule="evenodd" d="M55.3158 8.73291H52.9058C52.986 9.59381 53.444 10.3436 54.1114 10.8189L55.3158 8.73291Z" fill="#292929"/>
<path fill-rule="evenodd" clip-rule="evenodd" d="M55.3158 8.18931L54.1114 6.10327C53.4438 6.57841 52.986 7.32841 52.9058 8.18931H55.3158Z" fill="#292929"/>
</svg>
